<?xml version="1.0" encoding="UTF-8" standalone="no"?>
<!-- Created with Inkscape (http://www.inkscape.org/) -->

<svg
   xmlns:dc="http://purl.org/dc/elements/1.1/"
   xmlns:cc="http://creativecommons.org/ns#"
   xmlns:rdf="http://www.w3.org/1999/02/22-rdf-syntax-ns#"
   xmlns:svg="http://www.w3.org/2000/svg"
   xmlns="http://www.w3.org/2000/svg"
   xmlns:sodipodi="http://sodipodi.sourceforge.net/DTD/sodipodi-0.dtd"
   xmlns:inkscape="http://www.inkscape.org/namespaces/inkscape"
   id="svg2"
   version="1.1"
   inkscape:version="0.91 r13725"
   xml:space="preserve"
   width="500"
   height="334"
   viewBox="0 0 500 334"
   sodipodi:docname="1 (复件).svg"><metadata
     id="metadata8"><rdf:RDF><cc:Work
         rdf:about=""><dc:format>image/svg+xml</dc:format><dc:type
           rdf:resource="http://purl.org/dc/dcmitype/StillImage" /><dc:title></dc:title></cc:Work></rdf:RDF></metadata><defs
     id="defs6" /><sodipodi:namedview
     pagecolor="#ffffff"
     bordercolor="#666666"
     borderopacity="1"
     objecttolerance="10"
     gridtolerance="10"
     guidetolerance="10"
     inkscape:pageopacity="0"
     inkscape:pageshadow="2"
     inkscape:window-width="2675"
     inkscape:window-height="1470"
     id="namedview4"
     showgrid="false"
     inkscape:zoom="2"
     inkscape:cx="413.36716"
     inkscape:cy="85.069579"
     inkscape:window-x="397"
     inkscape:window-y="162"
     inkscape:window-maximized="0"
     inkscape:current-layer="g10" /><g
     id="g10"
     inkscape:groupmode="layer"
     inkscape:label="ink_ext_XXXXXX"
     transform="matrix(1.25,0,0,-1.25,0,334)"><g
       id="g12"
       transform="matrix(0.1,0,0,0.1,-0.74246212,-0.10606602)"><path
         d="M 9.51953,336.801 177.66,483.5 c 0,0 100.586,-30.168 146.758,11.563 23.027,20.812 131.395,115.066 238.812,205.015 42.954,35.961 63.274,77.168 109.981,56.059 41.691,-18.856 111.535,-68.754 215.363,161.457 59.301,159.176 163.606,373.086 242.396,418.846 -113.49,2.19 -132.349,-232.43 -370.849,-235.23 228.25,135.03 45.668,170.36 335.029,327.51 126.32,68.61 308.06,110.55 571.29,72.05 457.77,-74.63 764.4594,-152.9781 1202.5094,312.0519 49.12,52.15 95.4906,133.1281 109.2906,195.2281 2.73,12.24 35.66,116.31 36.78,131.17 -64.26,37.11 -72.72,130.35 -48.79,181.34 92.86,5.57 128.44,-66.74 143.57,-136.27 41.53,-0.9 130.173,-22.561 164.4655,-49.3535 113.5835,-146.8249 296.7496,-252.8689 459.9145,-259.9865 -50.33,-44.95 -95.27,-111.4 -221.95,-118.93 -131.82,-7.8 -242.28,27.14 -371.05,-53.26 -66.48,-41.53 -134.62,-115.97 -207.38,-252.16 -64.01,-107.14 -121.96,-203.3 -165.87,-243.05 37.36,22.75 129.65,43.81 175.63,34.2 47.07,-9.87 95.49,-36.03 138.77,-77.12 59.21,-56.22 120.8,-151.72 191.03,-226.31 33.85,-36.648 59.27,-76.281 67.3,-137.058 7.11,-53.844 5.13,-127.653 -11.2,-233.77 -121.96,153.391 -148.34,174.742 -148.34,174.742 l 9.91,95.762 c 8.15,-6.906 -114.97,142.613 -154.56,170.854 -152.55,108.82 -346.93,5.33 -473.74,-77.495 -316.72,-206.917 -711.78,-220.078 -1046.96,-46.488 -55.07,28.52 -104.48,49.887 -151.37,47.555 -11.65,-18.996 -23.77,-38.348 -37,-57.731 C 1194.56,679.973 1155.75,672.996 934.066,648.957 853.656,641.41 688.414,646.512 630.457,600.145 573.922,548.719 516.121,474.398 425.191,414.738 286.891,323.953 179.543,316.441 9.51953,336.801"
         style="fill:#670086;fill-opacity:1;fill-rule:evenodd;stroke:none"
         id="path14"
         inkscape:connector-curvature="0"
         sodipodi:nodetypes="ccscccccccccccccccccccccccccscccccccc" /><path
         d="m 1538.52,1513.73 c 40.34,-2.15 82.5258,-13.37 127.5058,-19.96 458.2799,-53.448 716.0235,-105.468 1162.9224,271.1636 49.11,52.16 139.9918,179.7664 153.8018,241.8764 2.72,12.23 31.15,117.54 32.27,132.41 -64.26,37.11 -72.72,130.35 -48.78,181.33 92.85,5.58 128.44,-66.73 143.56,-136.26 41.53,-0.89 137.8026,-29.1865 170.2826,-55.9165 113.7226,-138.9269 289.2057,-246.2341 454.0974,-253.4235 -50.34,-44.95 -95.27,-111.39 -221.95,-118.93 -131.82,-7.81 -242.28,27.14 -371.05,-53.26 -66.48,-41.53 -134.62,-115.97 -207.38,-252.16 -64.01,-107.14 -121.97,-203.3 -165.87,-243.05 37.36,22.75 129.65,43.81 175.63,34.19 47.07,-9.85 95.49,-36.01 138.76,-77.11 59.22,-56.22 120.81,-151.72 191.04,-226.31 33.85,-36.644 59.27,-76.281 67.3,-137.058 7.11,-53.848 5.13,-127.653 -11.2,-233.77 -121.97,153.391 -148.34,174.742 -148.34,174.742 l 9.9,95.762 c 8.16,-6.902 -114.95,142.609 -154.55,170.854 -130.35,92.98 -291.23,30.96 -414.41,-40.741 -606.22,37.591 -957.51,390.771 -1083.54,545.621"
         style="fill:#1a83d4;fill-opacity:1;fill-rule:evenodd;stroke:none"
         id="path16"
         inkscape:connector-curvature="0"
         sodipodi:nodetypes="ccccccccccccccccccccccc" /><path
         d="m 1945.2875,1463.2338 c 323.8,-28.25 563.831,-32.8976 909.281,333.8024 49.11,52.16 109.8715,148.9138 123.6815,211.0238 2.72,12.23 35.65,116.29 36.77,131.16 -64.26,37.11 -72.72,130.35 -48.78,181.33 92.85,5.58 128.44,-66.73 143.56,-136.26 41.53,-0.89 151.2977,-30.427 166.7313,-50.8019 121.2075,-144.7015 293.6907,-251.2962 457.6487,-258.5381 -50.34,-44.95 -95.27,-111.39 -221.95,-118.93 -131.82,-7.81 -242.28,27.14 -371.05,-53.26 -66.48,-41.53 -134.62,-115.97 -207.38,-252.16 -64.01,-107.14 -121.97,-203.3 -165.87,-243.05 60.53,10.49 120.17,21.76 178.52,33.57 l -2.89,0.62 c -45.98,9.62 -138.27,-11.44 -175.63,-34.19 -599.49,-103.81 -822.6737,255.6837 -822.6737,255.6837"
         style="fill:#99d420;fill-opacity:1;fill-rule:evenodd;stroke:none"
         id="path18"
         inkscape:connector-curvature="0"
         sodipodi:nodetypes="cccccccccccccccc" /><path
         d="m 3502.55,1945.1 c 71.041,-38.1619 147.6868,-66.0983 231.63,-70.15 -50.34,-44.95 -95.27,-111.39 -221.95,-118.93 -131.82,-7.81 -242.28,27.14 -371.05,-53.26 -66.48,-41.53 -134.62,-115.97 -207.38,-252.16 -64.01,-107.14 -121.97,-203.3 -165.87,-243.05 88.71,293.46 145.56,510.91 431.81,651.55 85.99,42.25 189.04,75.79 302.81,86"
         style="fill:#f6dc21;fill-opacity:1;fill-rule:evenodd;stroke:none"
         id="path20"
         inkscape:connector-curvature="0"
         sodipodi:nodetypes="cccccccc" /><path
         d="m 1945.1938,1463.265 c 322.8099,-20.068 428.818,8.5457 729.7558,189.5046 51.86,34.7249 221.0714,141.8288 282.7722,309.3627 35.1195,92.4285 56.1782,162.2177 57.2982,177.0877 -64.26,37.11 -72.72,130.35 -48.78,181.33 92.85,5.58 128.44,-66.73 143.56,-136.26 25.84,-0.56 73.46,-10.47 113.56,-24.33 -215.34,-242.94 -177.33,-519 -501.26,-740.16 -186.56,-127.37 -432.6613,-157.7625 -771.9013,41.0675 l -3.4738,1.7725"
         style="fill:#2a8a2a;fill-opacity:1;fill-rule:evenodd;stroke:none"
         id="path22"
         inkscape:connector-curvature="0"
         sodipodi:nodetypes="cccccccscc" /><path
         d="m 2767.93,1207.55 c 37.36,22.75 129.65,43.81 175.63,34.19 47.07,-9.85 95.49,-36.01 138.76,-77.11 59.22,-56.22 120.81,-151.72 191.04,-226.31 33.85,-36.644 59.27,-76.281 67.3,-137.058 7.11,-53.848 5.13,-127.653 -11.2,-233.77 -121.97,153.391 -148.34,174.742 -148.34,174.742 l 9.9,95.762 c 8.16,-6.902 -114.95,142.609 -154.55,170.854 -130.35,92.98 -291.23,30.96 -414.41,-40.741 0,0 65.9,185.521 145.87,239.441"
         style="fill:#bf261c;fill-opacity:1;fill-rule:evenodd;stroke:none"
         id="path24"
         inkscape:connector-curvature="0" /><path
         d="M 2622.06,968.109 C 2601.08,955.895 2581.19,943.41 2562.74,931.355 2246,724.441 1850.95,711.277 1515.77,884.871 c -55.07,28.516 -104.48,49.887 -151.37,47.555 -2.23,-3.629 593.33,449.664 1257.66,35.683"
         style="fill:#271ced;fill-opacity:1;fill-rule:evenodd;stroke:none"
         id="path26"
         inkscape:connector-curvature="0" /><path
         d="m 1490.05,897.801 c -44.92,21.754 -86.17,36.586 -125.65,34.625 -1.97,-3.199 460.77,348.644 1025.6,148.284 C 2069.61,820.418 1684.56,855.984 1490.05,897.801"
         style="fill:#14c1fe;fill-opacity:1;fill-rule:evenodd;stroke:none"
         id="path28"
         inkscape:connector-curvature="0" /><path
         d="m 3199.25,1025.87 c 23.75,-30.022 48.35,-60.194 74.11,-87.55 33.85,-36.644 59.27,-76.281 67.3,-137.058 7.11,-53.848 5.13,-127.653 -11.2,-233.77 -121.97,153.391 -148.34,174.742 -148.34,174.742 l 9.9,95.762 c 0.52,-0.433 0.52,-0.254 0.05,0.461 0.85,7.32 11.67,103.531 8.18,187.413"
         style="fill:#e46922;fill-opacity:1;fill-rule:evenodd;stroke:none"
         id="path30"
         inkscape:connector-curvature="0" /><path
         d="m 3344.5,744.668 c 0.64,-46.445 -3.8,-104.16 -15.04,-177.176 -121.97,153.391 -148.34,174.742 -148.34,174.742 l 9.9,95.762 c 0.29,-0.246 0.4,-0.266 0.37,-0.137 5.77,-2.296 84.49,-34.164 153.11,-93.191"
         style="fill:#b21500;fill-opacity:1;fill-rule:evenodd;stroke:none"
         id="path32"
         inkscape:connector-curvature="0" /><path
         d="M 9.51953,336.801 177.66,483.5 c 0,0 100.59,-30.16 146.758,11.566 23.023,20.809 131.398,115.063 238.812,205.008 42.954,35.961 63.278,77.168 109.985,56.059 41.691,-18.852 111.535,-68.75 215.363,161.461 59.293,159.176 163.602,373.086 242.392,418.846 -113.49,2.19 -132.349,-232.43 -370.849,-235.23 228.25,135.03 45.672,170.36 335.029,327.52 126.33,68.6 308.06,110.54 571.29,72.04 99.86,-16.28 189.2664,-30.2312 278.5964,-37.6312 l -0.019,-0.041 c -466.23,-55.94 -580.3539,-529.6095 -580.6539,-530.7345 -5.8825,-9.48375 -28.8399,-46.597 -35.3699,-56.172 C 1196.1538,681.477 1157.5838,672.246 935.90975,648.207 855.49575,640.664 688.41,646.512 630.461,600.145 573.922,548.719 516.121,474.398 425.191,414.738 286.891,323.953 179.543,316.438 9.51953,336.801"
         style="fill:#c11ea8;fill-opacity:1;fill-rule:evenodd;stroke:none"
         id="path34"
         inkscape:connector-curvature="0"
         sodipodi:nodetypes="cccccccccccccccccc" /><path
         d="m 883.219,905.934 5.359,11.66 c 59.293,159.176 163.602,373.086 242.392,418.846 -113.49,2.19 -132.349,-232.43 -370.849,-235.23 228.25,135.03 45.672,170.36 335.029,327.52 126.33,68.6 308.06,110.54 571.29,72.04 99.86,-16.28 189.4851,-30.1687 278.8151,-37.5687 l -0.02,-0.072 c -397.63,-47.71 -542.8525,-421.4101 -580.7825,-530.69515 -48.51,5.617 -303.8637,31.21125 -481.2347,-26.49975"
         style="fill:#be180f;fill-opacity:1;fill-rule:evenodd;stroke:none"
         id="path36"
         inkscape:connector-curvature="0"
         sodipodi:nodetypes="cccccccccc" /><path
         d="M 9.51953,336.801 177.66,483.5 c 0,0 78.93,-23.66 129.043,-0.059 l 0.008,-0.011 c 0,0 98.758,-6.11 236.902,29.965 C 510.02,480.047 471.988,445.441 425.191,414.738 286.891,323.953 179.543,316.438 9.51953,336.801"
         style="fill:#ed7e1c;fill-opacity:1;fill-rule:evenodd;stroke:none"
         id="path38"
         inkscape:connector-curvature="0" /><path
         d="m 1326.54,169.762 17.56,71.422 268.23,0 -35.79,-145.5395 -125.93,0 18.23,74.1175 -142.3,0 z M 1439.2,6.84375 c -2.64,0.01172 -156.56,0.04297 -159.16,0.08203 -59.8,0.97266 -110.2,10.17972 -151.18,27.75392 -43.31,18.5703 -72.81,45.2578 -88.47,79.7893 -15.65,34.535 -18.46,72.211 -8.47,112.84 10.84,44.078 33.99,83.234 69.31,117.566 35.45,34.238 81.32,60.602 137.72,78.902 43.13,14.071 94,21.055 152.94,21.055 2.68,0 407.98,4.832 410.6,4.809 l -65.42,-73.711 c -2.65,0.07 -360.59,-4.293 -363.32,-4.293 -54.34,0 -100.51,-11.805 -138.39,-35.512 -37.9,-23.715 -62.63,-58.836 -74.08,-105.371 -12.37,-50.27 -5.39,-87.949 20.92,-113.039 26.47,-25.0861 65.92,-37.6798 118.67,-37.6798 1.68,0 154.65,0.0156 156.34,0.0468 L 1439.2,6.84375"
         style="fill:#787878;fill-opacity:1;fill-rule:nonzero;stroke:none"
         id="path40"
         inkscape:connector-curvature="0" /><path
         d="m 2140.45,14.5117 -134.7,0 -29.66,96.2183 -203.07,0 55.58,71.426 124.53,0 -47.35,156.426 -89.48,-114.867 -2.79,-3.59 -29.58,-37.969 0.03,0 -90.53,-116.3122 -40,-51.3321 -132.25,0 343.73,422.6443 132.1,0 143.44,-422.6443"
         style="fill:#787878;fill-opacity:1;fill-rule:nonzero;stroke:none"
         id="path42"
         inkscape:connector-curvature="0" /><path
         d="m 2167.44,14.5117 103.95,422.6443 187.31,0 39.78,-288.254 180.29,288.254 187.73,0 -103.95,-422.6443 -115.58,0 81.41,332.7223 -203.59,-332.7223 -120.17,0 -39.34,332.7223 -82.28,-332.7223 -115.56,0"
         style="fill:#787878;fill-opacity:1;fill-rule:nonzero;stroke:none"
         id="path44"
         inkscape:connector-curvature="0" /><path
         d="m 2809.55,87.6602 c 8.02,-0.75 223.84,-1.1289 232.94,-1.1289 39.96,0 71.58,5.8007 94.71,17.4097 23.12,11.614 36.66,25.184 40.49,40.731 2.47,10.035 0.23,18.496 -6.51,25.578 -6.76,6.984 -20.21,13.086 -40.22,18.203 -13.66,3.539 -45.22,9.641 -94.79,18.492 -63.74,11.414 -107.03,25.383 -129.82,42.008 -32.06,23.32 -43.9,51.75 -35.65,85.301 5.3,21.543 19.19,41.812 41.5,60.601 22.44,18.793 51.54,33.055 87.45,42.895 35.91,9.836 77.37,14.754 124.81,14.754 2.99,0 220.37,-0.02 223.3,-0.051 l -17.45,-70.933 c -3.37,0.101 -221.27,0.152 -224.86,0.152 -35.93,0 -65.37,-5.113 -88.15,-15.344 -14.7,-6.594 -23.47,-15.351 -26.18,-26.371 -2.47,-10.031 1.61,-18.594 12.24,-25.676 13.41,-9.144 49.18,-18.59 107.27,-28.433 58.12,-9.739 100.32,-19.969 126.64,-30.395 26.46,-10.527 45.65,-24.797 57.57,-42.992 11.91,-18.203 14.58,-40.637 8.02,-67.293 -5.95,-24.207 -21.31,-46.9297 -46.21,-68.0821 -24.89,-21.1523 -56.51,-36.8906 -94.96,-47.125 -38.48,-10.332 -84.59,-15.4492 -138.21,-15.4492 -8.42,0 -223.87,0.1446 -231.82,0.4336 l 17.89,72.7149"
         style="fill:#787878;fill-opacity:1;fill-rule:nonzero;stroke:none"
         id="path46"
         inkscape:connector-curvature="0" /><path
         d="m 3831.58,33.1523 -504.83,0 52.54,71.4257 504.83,0 -52.54,-71.4257"
         style="fill:#787878;fill-opacity:1;fill-rule:evenodd;stroke:none"
         id="path48"
         inkscape:connector-curvature="0" /><path
         d="m 3890.4726,201.54417 -504.82,0 52.53,71.425 504.83,0 -52.54,-71.425"
         style="fill:#787878;fill-opacity:1;fill-rule:evenodd;stroke:none"
         id="path50"
         inkscape:connector-curvature="0" /><path
         d="m 3947.36,381.082 -504.82,0 52.53,71.426 504.83,0 -52.54,-71.426"
         style="fill:#787878;fill-opacity:1;fill-rule:evenodd;stroke:none"
         id="path52"
         inkscape:connector-curvature="0" /><path
         d="M 9.51953,336.801 177.66,483.5 c 0,0 78.93,-23.648 129.043,-0.051 l 0.008,-0.019 c 0,0 -36.172,-94.782 -130.551,-155.035 -50.191,-2.797 -104.1795,0.921 -166.64047,8.406"
         style="fill:#971f14;fill-opacity:1;fill-rule:evenodd;stroke:none"
         id="path54"
         inkscape:connector-curvature="0" /><path
         d="m 3272.1219,2202.9453 c 43.6298,75.5769 112.6048,162.0774 40.3075,256.4001 -27.1042,29.9812 -72.7915,82.1448 -172.4715,95.5248 178.1,-55.22 118.1721,-231.6102 50.7021,-302.8302 -72.3,-76.39 -117.13,-127.53 -59.07,-241.43 66.9249,-105.6526 200.68,-94.73 291.21,-126.62 46.46,-16.36 100.23,-49.08 159.72,-116.01 48.02,14.45 80.19,39.38 107.44,64.72 -149.6,50.71 -540.6814,182.4751 -455.9314,311.1351"
         style="fill:#ed8f1c;fill-opacity:1;fill-rule:evenodd;stroke:none"
         id="path56"
         inkscape:connector-curvature="0"
         sodipodi:nodetypes="ccccccccc" /></g></g></svg>